# xmcd
# Track frame offsets:
# 182
# 17882
# 33930
# 43935
# 58127
# 71602
# 86825
# 99740
# 114917
# 128725
# 140412
# 153782
# 170127
# 185245
# 199915
# 217367
#
# Disc length: 3028 seconds
# Revision: 0
# Processed by: cddbd v1.4PL0 Copyright (c) Steve Scherf et al.
# Submitted via: VisiTrax 2.9.3.171 - For more info visit www.synapsa.com
#
DISCID=f60bd210
DTITLE=Various Artist - Cajun Dance Favorites
DYEAR=1993
DGENRE=Country
TTITLE0=Jambalaya Cajun Band - Swallow Two-Step
TTITLE1=Cajun Gold - La Valse De La Vie
TTITLE2=D.L. Menard - The Back Door
TTITLE3=Joe Bonsall - Chere Tout Toute
TTITLE4=Walter Mouton - Scott Playboys Special
TTITLE5=Belton Richard - Let Me Talk To Your Heart
TTITLE6=Dewey Balfa - When I Was Poor
TTITLE7=Jambalaya Cajun Band - Tee Yeaux Noir
TTITLE8=Cajun Gold - T.Bec Do'
TTITLE9=Delton Richard - Jolie Blonde
TTITLE10=Nathan Abshire - Pine Grove Blues
TTITLE11=Cajun Gold - Light In The Window
TTITLE12=Jambalaya Cajun Band - La Point Aux Pins
TTITLE13=Sheryl Cormier - Bosco Stomp
TTITLE14=Le Band Passepartout - Je Suis Tout Pour Toi
TTITLE15=Joe Bonsall - I Went To The Dance
EXTD=
EXTT0=
EXTT1=
EXTT2=
EXTT3=
EXTT4=
EXTT5=
EXTT6=
EXTT7=
EXTT8=
EXTT9=
EXTT10=
EXTT11=
EXTT12=
EXTT13=
EXTT14=
EXTT15=
PLAYORDER=
